<svg width="82" height="82" viewBox="0 0 82 82" fill="white" stroke="white" xmlns="http://www.w3.org/2000/svg">
<path d="M65.2245 12.4623C57.1891 12.4623 50.5126 18.4889 49.5081 26.288L45.3722 27.2334L41.0591 19.8479C41.0591 19.0798 40.9409 18.3117 40.6455 17.6027C40.3501 16.7755 39.8774 16.0665 39.2275 15.4756C41.4727 14.353 43.127 11.6352 43.127 8.50369C43.127 4.3678 40.291 1 36.805 1C33.3191 1 30.483 4.3678 30.483 8.56278C30.483 10.0399 30.8375 11.3397 31.4284 12.5214C29.1832 12.4032 26.997 13.644 25.9926 15.771L16.8346 36.4505L15.8892 38.4594C14.6484 41.3545 14.9439 44.6041 16.7755 47.2038C16.7755 47.2629 16.8346 47.2629 16.8346 47.2629L16.8936 47.322L17.6617 54.7666L14.1167 58.4298L6.79025 66.0517L6.31758 66.5244L1.17725 70.7193C1.05908 70.7784 1 70.8966 1 71.0739C1 71.192 1.05908 71.3693 1.11817 71.4874L7.91285 79.2275C8.26736 79.582 8.74003 79.7592 9.2127 79.7592C9.38996 79.7592 9.62629 79.7001 9.80354 79.6411C10.4535 79.4047 10.9261 78.8139 11.0443 78.164V78.1049V71.901L21.325 65.1063L24.6337 62.5657C24.6928 62.5066 24.6928 62.5066 24.7518 62.4476C25.8744 60.9114 26.5244 59.1388 26.7016 57.3072C26.7016 57.2481 26.7016 57.1891 26.7016 57.1891L26.5835 56.5391L27.9424 57.839L29.1832 64.0428L31.2511 74.2053L31.7238 80.5273C31.7238 80.8227 31.9601 81.0591 32.2555 81.0591H42.418C43.127 81.0591 43.777 80.6455 44.0724 79.9956C44.3678 79.3456 44.3087 78.6366 43.836 78.1049C43.777 78.0458 43.777 78.0458 43.7179 77.9867L37.9276 73.8508C38.0458 72.4328 38.4594 66.4653 37.8685 61.325C37.2186 55.3575 36.9232 54.1758 36.6869 53.7622C36.6869 53.7622 36.6869 53.7031 36.6278 53.7031L30.6603 45.3722L31.7238 42.8316L34.6189 36.0369L35.6824 38.6957C35.6824 38.7548 35.7415 38.8139 35.8006 38.873C36.1551 39.2866 36.6278 39.582 37.1595 39.8774C37.9867 40.3501 38.9321 40.5864 39.8774 40.5864C40.291 40.5864 40.7637 40.5273 41.1773 40.4092L52.5214 37.7504C55.4165 41.5908 60.0251 44.1315 65.1654 44.1315C73.9099 44.1315 81 37.0414 81 28.2969C81 19.5524 73.9099 12.4623 65.2245 12.4623ZM45.4313 28.356L49.39 27.4106C49.39 27.7061 49.39 27.9424 49.39 28.2378C49.39 29.065 49.449 29.8922 49.5672 30.7193L42.7725 32.3737L45.4313 28.356ZM40.7637 21.5022L44.4269 27.8833L41.8272 31.7829L39.1684 25.2836L40.4682 22.1521C40.5864 21.9749 40.7046 21.7386 40.7637 21.5022ZM36.805 2.06352C39.7001 2.06352 42.0044 4.95864 42.0044 8.50369C42.0044 11.4579 40.4092 13.9394 38.164 14.7075C37.9276 14.8257 37.6322 14.9439 37.3959 14.9439C37.2186 14.9439 37.0414 15.003 36.805 15.003C35.5643 15.003 34.3826 14.4712 33.4963 13.5258C33.26 13.2895 33.0236 13.0532 32.8464 12.7578C32.0192 11.6352 31.5465 10.158 31.5465 8.56278C31.5465 4.95864 33.9099 2.06352 36.805 2.06352ZM9.9808 71.6056V78.0458C9.92171 78.3412 9.74446 78.5185 9.50812 78.6366C9.2127 78.7548 8.91728 78.6366 8.74003 78.4594L2.35894 71.192L6.613 67.7061L9.2127 70.7193L9.9808 71.6056ZM20.1433 64.5155L10.6898 70.7784L7.44018 66.938L7.55835 66.8198C7.55835 66.8198 7.55835 66.8198 7.61743 66.7607L14.5894 59.4933L20.1433 64.5155ZM23.9247 61.7385L21.0886 63.8656L15.2984 58.8434L18.6071 55.4165C18.7253 55.2984 18.7843 55.1211 18.7253 54.9439L18.0753 48.5037L25.2836 55.2984L25.6381 57.2482C25.4609 58.9025 24.87 60.4387 23.9247 61.7385ZM43.0679 78.8139C43.1861 79.0502 43.2452 79.2866 43.127 79.5229C43.0089 79.7592 42.7725 79.9365 42.4771 79.9365H32.7873L32.3737 74.6189H37.2186L43.0679 78.8139ZM36.9232 73.5554H32.2555L30.3648 64.3383L36.9232 62.1521C37.3959 66.7607 37.0414 71.9601 36.9232 73.5554ZM35.7415 54.2939C35.8597 54.5303 36.1551 55.712 36.805 61.0295L30.1876 63.2157L29.0059 57.4254C29.0059 57.3072 28.9468 57.1891 28.8287 57.13L26.288 54.7666L25.6381 54.1167L24.9882 53.5258L17.9572 46.8493L17.6027 46.5539C17.4845 46.3767 17.4254 46.1994 17.3072 46.0222C17.0118 45.4904 16.7755 44.9586 16.5982 44.3678C16.0665 42.5953 16.1256 40.6455 16.8936 38.873L17.5436 37.3368L21.384 38.9911L30.5421 42.8907L29.5377 45.195C29.4786 45.3722 29.5377 45.6086 29.5968 45.7267L35.7415 54.2939ZM37.2777 38.6366C37.0414 38.4594 36.8641 38.3412 36.6869 38.164L35.2688 34.6189L34.9734 33.8508L34.678 33.1418L30.1285 21.9158L30.0694 21.6795C29.9513 21.384 29.6558 21.2659 29.3604 21.384C29.065 21.5022 28.9468 21.7976 29.065 22.0931L34.0872 34.5598L30.9557 41.8863L18.0162 36.3914L26.997 16.1846C27.8833 14.2349 30.1285 13.1713 32.1965 13.644C33.3781 15.1211 34.9734 16.0665 36.805 16.0665C37.2186 16.0665 37.6322 16.0074 38.0458 15.8892C38.7548 16.421 39.3456 17.0709 39.7001 17.9572C39.7001 18.0162 39.7592 18.0753 39.7592 18.1344C39.8774 18.3708 39.9365 18.6662 39.9365 18.9616C39.9956 19.3161 39.9956 19.7297 39.9365 20.0842C39.8774 20.675 39.7592 21.2068 39.4638 21.7386L38.5775 23.8656L37.6913 21.6795C37.5731 21.384 37.2777 21.2659 36.9823 21.384C36.7459 21.5022 36.6278 21.6795 36.6278 21.9158C36.6278 21.9749 36.6278 22.034 36.6869 22.0931L37.9867 25.2836L38.2821 25.9926L38.5775 26.7016L41.0591 32.9055L40.1728 34.2644L40.1137 34.3235L39.8183 34.7962L37.2777 38.6366ZM52.4032 36.6278L51.8715 36.7459L40.9409 39.3456C39.9956 39.5229 39.1093 39.4638 38.223 39.1093L40.8227 35.2097L41.1773 34.7371L41.4727 34.2644L41.8272 33.6736L49.7445 31.8419L50.3353 31.7238L50.8671 31.6056L53.7622 30.9557C54.4712 30.7784 55.1802 30.8966 55.7711 31.2511C55.8301 31.2511 55.8301 31.3102 55.8892 31.3693C56.0665 31.4874 56.2437 31.6647 56.3619 31.8419C56.4801 32.0192 56.5982 32.1374 56.7164 32.3146C56.8346 32.4919 56.8937 32.7282 56.9527 32.9055C57.13 33.6145 57.0118 34.3235 56.5982 34.9143C56.2437 35.5052 55.6529 35.9188 54.9439 36.096L52.9941 36.5096L52.4032 36.6278ZM65.2245 43.0089C60.5569 43.0089 56.421 40.8227 53.7031 37.4549L55.1802 37.1004C56.1256 36.8641 57.0118 36.2733 57.4845 35.4461C58.0163 34.6189 58.1935 33.6145 57.9572 32.61C57.9572 32.3737 57.8981 32.1965 57.7799 32.0192C57.7208 31.8419 57.6027 31.6647 57.5436 31.4874C57.4254 31.3102 57.3072 31.192 57.1891 31.0148C56.9527 30.7193 56.6573 30.483 56.3028 30.3058C55.4756 29.774 54.4712 29.5967 53.4668 29.8331L50.6307 30.483C50.5126 29.774 50.4535 29.0059 50.4535 28.2378C50.4535 27.8833 50.4535 27.5288 50.5126 27.1152C50.5126 26.938 50.5716 26.7607 50.5716 26.5244C50.5716 26.3471 50.6307 26.1108 50.6307 25.9335C51.6942 18.8434 57.839 13.4668 65.1654 13.4668C73.26 13.4668 79.8774 20.0842 79.8774 28.1787C79.8774 36.2733 73.3191 43.0089 65.2245 43.0089Z" />
<path d="M13.8213 21.0886C13.8804 21.0886 13.9395 21.0886 13.9985 21.0295C14.294 20.9114 14.4121 20.6159 14.294 20.3205C13.1714 17.3072 13.2895 13.9985 14.5894 10.9852C15.9483 8.03101 18.3117 5.72673 21.3841 4.60413C21.6795 4.48596 21.7976 4.19054 21.7386 3.89512C21.6204 3.5997 21.2659 3.48153 21.0296 3.5997C17.7208 4.84046 15.1211 7.322 13.644 10.5716C12.1669 13.8213 12.0488 17.4254 13.3486 20.7341C13.4077 20.9114 13.644 21.0886 13.8213 21.0886Z" />
<path d="M18.0753 18.9025C18.1344 19.1389 18.3708 19.257 18.6071 19.257C18.6662 19.257 18.7253 19.257 18.7844 19.1979C19.0798 19.0798 19.1979 18.7843 19.0798 18.4889C17.7208 14.8848 19.5524 10.7489 23.2157 9.33087C23.5111 9.27179 23.6293 8.91728 23.5111 8.68095C23.3929 8.38553 23.0975 8.20827 22.8021 8.32644C18.6071 9.92172 16.4801 14.7075 18.0753 18.9025Z" />
<path d="M64.1019 52.5214C58.1935 55.771 50.808 53.5849 47.5583 47.6765C47.3811 47.4402 47.0857 47.322 46.7902 47.4993C46.5539 47.6174 46.4357 47.9719 46.613 48.2083C48.9764 52.6396 53.5849 55.1211 58.2526 55.1211C60.3796 55.1211 62.5657 54.5894 64.6337 53.4668C64.87 53.3486 64.9882 52.9941 64.87 52.6987C64.6928 52.5214 64.3383 52.4032 64.1019 52.5214Z" />
<path d="M58.2526 50.0399C59.5524 50.0399 60.9114 49.7445 62.1521 49.0354C62.4476 48.9173 62.5066 48.5628 62.3885 48.2674C62.2703 48.031 61.9158 47.9128 61.6204 48.031C58.1935 49.9217 53.8803 48.6219 51.9897 45.195C51.8715 45.0177 51.517 44.8996 51.2806 45.0177C50.9852 45.195 50.9261 45.5495 51.0443 45.7858C52.5214 48.5037 55.3574 50.0399 58.2526 50.0399Z" />
</svg>
