<svg width="84" height="82" viewBox="0 0 84 82" fill="none" stroke="white" xmlns="http://www.w3.org/2000/svg">
<path d="M40.3808 16.7579C43.7619 17.5126 47.0977 15.3541 47.8525 11.9428L48.5619 8.71267C49.3166 5.28628 47.1883 1.90518 43.8072 1.15047C40.4261 0.395754 37.0903 2.55423 36.3356 5.96552L35.6261 9.19568C34.8714 12.6221 36.9997 16.0032 40.3808 16.7579Z"  stroke-width="1.7" stroke-miterlimit="10" stroke-linecap="round" stroke-linejoin="round"/>
<path d="M21.6338 47.4897C20.5621 53.4368 23.6715 54.4632 23.6715 54.4632L18.63 77.4668C18.2678 78.9008 19.0829 80.4253 20.5168 80.8178C23.2489 81.5725 26.0564 79.9121 26.7658 77.1499L34.2375 47.4897H21.6338Z"  stroke-width="1.7" stroke-miterlimit="10" stroke-linecap="round" stroke-linejoin="round"/>
<path d="M38.2374 80.8328C36.8186 81.2857 35.3243 80.4706 34.8563 79.0668L30.1469 65.0896L34.2979 47.2633L41.4827 74.3272C42.4034 77.014 40.9393 79.9574 38.2374 80.8328Z"  stroke-width="1.7" stroke-miterlimit="10" stroke-linecap="round" stroke-linejoin="round"/>
<path d="M80.1843 42.7954H3.32451C2.0415 42.7954 1 43.8369 1 45.135C1 46.4331 2.0415 47.4746 3.32451 47.4746H80.1994C81.4824 47.4746 82.5239 46.4331 82.5239 45.135C82.5088 43.852 81.4673 42.7954 80.1843 42.7954Z"  stroke-width="1.7" stroke-miterlimit="10" stroke-linecap="round" stroke-linejoin="round"/>
<path d="M78.3277 47.4897H72.3202V52.8633H78.3277V47.4897Z"  stroke-width="1.7" stroke-miterlimit="10" stroke-linecap="round" stroke-linejoin="round"/>
<path d="M75.3239 52.8633V80.9536"  stroke-width="1.7" stroke-miterlimit="10" stroke-linecap="round" stroke-linejoin="round"/>
<path d="M11.1886 47.4897H5.18109V52.8633H11.1886V47.4897Z"  stroke-width="1.7" stroke-miterlimit="10" stroke-linecap="round" stroke-linejoin="round"/>
<path d="M8.18484 52.8633V80.9536"  stroke-width="1.7" stroke-miterlimit="10" stroke-linecap="round" stroke-linejoin="round"/>
<path d="M54.2071 37.6181L41.4827 21.3616C41.06 20.7428 40.0487 19.5805 38.2374 19.6258H33.4978C31.7922 19.6258 30.2677 20.7428 29.7394 22.388L22.0564 42.8105H36.1091L40.3355 30.8257L49.9354 41.92C50.9317 43.1577 52.9845 43.052 54.192 41.92C55.4297 40.7728 55.2939 39.0822 54.2071 37.6181Z"  stroke-width="1.7" stroke-miterlimit="10" stroke-linecap="round" stroke-linejoin="round"/>
<path d="M37.8601 27.988L40.3506 30.8106"  stroke-width="1.7" stroke-miterlimit="10" stroke-linecap="round" stroke-linejoin="round"/>
</svg>
