<svg width="82" height="90" viewBox="0 0 82 90" fill="white" stroke="white" xmlns="http://www.w3.org/2000/svg">
<mask id="path-1-outside-1_1_669" maskUnits="userSpaceOnUse" x="0" y="0" width="82" height="90" fill="black">
<rect width="82" height="90"/>
<path d="M43.6879 27.4874C47.7861 27.4874 50.0153 22.7662 50.0153 19.2131C50.0153 15.0468 48.3896 10.9389 43.6879 10.9389C38.9862 10.9389 37.3605 15.0468 37.3605 19.2131C37.3605 22.7662 39.5897 27.4874 43.6879 27.4874ZM43.6879 11.9123C48.5162 11.9123 49.0419 17.0131 49.0419 19.2131C49.0419 22.2697 47.1826 26.5139 43.6879 26.5139C40.1933 26.5139 38.334 22.2697 38.334 19.2131C38.334 17.0229 38.8596 11.9123 43.6879 11.9123ZM81 75.4489C81 76.2569 80.3478 76.9091 79.5398 76.9091H69.8054C68.9974 76.9091 68.3452 76.2569 68.3452 75.4489C68.3452 75.1764 68.5594 74.9622 68.832 74.9622C69.1045 74.9622 69.3187 75.1764 69.3187 75.4489C69.3187 75.7215 69.5328 75.9357 69.8054 75.9357H79.5398C79.8124 75.9357 80.0266 75.7215 80.0266 75.4489C80.0266 73.5702 78.4983 72.0419 76.6195 72.0419H68.832C68.5594 72.0419 68.3452 71.8277 68.3452 71.5552C68.3452 71.2826 68.5594 71.0685 68.832 71.0685H72.5213L71.4213 59.8738C71.0514 56.1164 67.9267 53.2934 64.1594 53.2934H61.8329V52.3199H64.1594C68.4328 52.3199 71.9762 55.5323 72.3948 59.7862L73.5045 71.0782H76.6195C79.0434 71.0684 81 73.0348 81 75.4489ZM42.7145 28.4608C40.3003 28.4608 38.334 30.4272 38.334 32.8413V35.7617C38.334 35.7811 38.334 48.6793 38.334 48.6793H39.3074V42.4395C40.4658 46.1094 42.695 48.9031 46.1215 48.9031H55.3692C57.248 48.9031 58.7763 47.3748 58.7763 45.4961C58.7763 43.6173 57.248 42.089 55.3692 42.089H50.9887V37.2218C50.9887 32.559 47.1242 28.4608 42.7145 28.4608ZM57.8028 45.4961C57.8028 46.8394 56.7126 47.9297 55.3692 47.9297H46.1215C41.1278 47.9297 39.3172 40.6775 39.3074 35.7811V32.8413C39.3074 30.9626 40.8357 29.4343 42.7145 29.4343C46.6082 29.4343 50.0153 33.075 50.0153 37.2218V42.089H46.6667L45.0605 33.99C45.0118 33.7272 44.7587 33.5519 44.4861 33.6103C44.2233 33.659 44.0481 33.9219 44.1065 34.1847L45.8684 43.0625H55.3692C56.7126 43.0625 57.8028 44.1527 57.8028 45.4961ZM43.5224 60.3606C36.2605 60.3606 31.2278 65.8119 31.2278 72.5286C31.2278 79.2454 36.2508 84.6967 43.5224 84.6967C50.7941 84.6967 55.817 79.2454 55.817 72.5286C55.817 65.8119 50.7843 60.3606 43.5224 60.3606ZM43.5224 83.7232C37.0685 83.7232 32.2013 78.9144 32.2013 72.5286C32.2013 66.1428 37.0685 61.334 43.5224 61.334C49.9764 61.334 54.8436 66.1428 54.8436 72.5286C54.8436 78.9144 49.9764 83.7232 43.5224 83.7232ZM80.0266 78.6126H66.8851V65.9968C66.8851 57.2553 59.7692 50.1394 51.0277 50.1394H35.7349V43.6076L32.0066 39.8793H26.4482C26.1757 39.8793 25.9615 40.0935 25.9615 40.366C25.9615 40.6386 26.1757 40.8528 26.4482 40.8528H31.5978L34.7517 44.0067V58.2482C29.7774 61.1199 26.7208 66.4251 26.7208 72.5189C26.7208 81.6595 33.5933 89.0674 43.5127 89.0674C53.1985 89.0674 59.9542 82.0099 60.2754 73.1808L65.9019 78.8073V80.8418C63.8674 81.0754 62.4948 82.7011 62.4948 84.6869C62.4948 86.8382 64.0913 88.5807 66.3886 88.5807C68.6859 88.5807 70.2824 86.8382 70.2824 84.6869C70.2824 82.6914 68.9098 81.0657 66.8753 80.8418V79.5763H80.0168C80.2894 79.5763 80.5035 79.3622 80.5035 79.0896C80.5133 78.8268 80.2991 78.6126 80.0266 78.6126ZM35.7349 51.1129H51.0277C57.9586 51.1129 63.7798 55.8827 65.4346 62.3075H56.917C53.9577 58.4624 49.256 55.9801 43.5322 55.9801C40.641 55.9801 38.0225 56.6226 35.7446 57.742V51.1129H35.7349ZM43.5224 88.1037C34.5083 88.1037 27.704 81.4064 27.704 72.5286C27.704 63.6508 34.5083 56.9535 43.5224 56.9535C52.5365 56.9535 59.3409 63.6508 59.3409 72.5286C59.3409 81.4064 52.5462 88.1037 43.5224 88.1037ZM60.2851 71.8083C60.1586 68.664 59.2338 65.734 57.6276 63.2809H65.6585C65.824 64.1667 65.9214 65.072 65.9214 65.9968V77.4348L60.2851 71.8083ZM69.3187 84.6967C69.3187 86.3904 68.0921 87.617 66.3984 87.617C64.7046 87.617 63.478 86.3904 63.478 84.6967C63.478 83.0029 64.7046 81.7763 66.3984 81.7763C68.0921 81.7763 69.3187 83.0029 69.3187 84.6967ZM22.5934 83.2365H20.7536L23.3332 70.28C24.1022 66.4349 24.1022 62.5411 23.3332 58.696L20.8315 46.1386L20.8899 46.197C21.5324 46.8394 22.389 47.1996 23.2943 47.1996C24.2093 47.1996 25.0562 46.8492 25.7084 46.197C26.3509 45.5545 26.7013 44.6979 26.7013 43.7926C26.7013 42.8873 26.3509 42.0306 25.7084 41.3882L21.2793 36.959C21.3182 36.959 21.3182 26.8255 21.3182 26.8255C21.3182 22.26 17.6094 18.5512 13.0439 18.5512C10.6298 18.5512 8.66343 20.5175 8.66343 22.9317V45.2722V45.7881C8.64396 47.1023 8.64396 48.689 9.45192 51.2005V61.996L2.59888 78.564L1.10951 82.1657C0.963496 82.5259 0.963496 82.925 1.10951 83.2852C1.25553 83.6453 1.53783 83.9276 1.898 84.0736L10.8926 87.8019C11.0776 87.8798 11.2625 87.909 11.4475 87.909C12.0218 87.909 12.5669 87.5683 12.8006 87.0037C13.7253 84.7745 12.6643 82.2046 10.4254 81.2799L8.79971 80.6082L15.9351 67.2525L14.3581 83.2365C14.3094 83.2365 14.3094 87.617 14.3094 87.617C14.3094 88.4249 14.9616 89.0771 15.7696 89.0771H25.504C26.312 89.0771 26.9642 88.4249 26.9642 87.617C26.9739 85.2028 25.0173 83.2365 22.5934 83.2365ZM13.0537 19.5246C17.0837 19.5246 20.3545 22.7954 20.3545 26.8255V36.0245L19.712 35.382C18.3297 33.9997 17.5704 32.1697 17.5704 30.2228V26.8741C17.5704 26.6016 17.3563 26.3874 17.0837 26.3874C16.8112 26.3874 16.597 26.6016 16.597 26.8741V30.2228C16.597 32.4325 17.4536 34.5059 19.0209 36.0732L25.0173 42.0696C25.4748 42.5271 25.7279 43.1404 25.7279 43.7926C25.7279 44.4448 25.4748 45.058 25.0173 45.5156C24.1022 46.4306 22.4961 46.4403 21.5713 45.5156L15.5749 39.5191C13.0926 37.0369 11.7298 33.7369 11.7298 30.2228V24.7325C11.7298 24.46 11.5156 24.2458 11.2431 24.2458C10.9705 24.2458 10.7563 24.46 10.7563 24.7325V30.2228C10.7563 33.99 12.2262 37.5333 14.8935 40.2006L19.4784 44.7855H9.64661V22.9317C9.64661 21.0529 11.1749 19.5246 13.0537 19.5246ZM11.8953 86.6338C11.7882 86.8772 11.5059 87.0037 11.2625 86.8966L2.26791 83.1684C2.1511 83.1197 2.05375 83.0223 2.00508 82.9055C1.95641 82.7887 1.95641 82.6524 2.00508 82.5356L3.30949 79.3914L10.0555 82.1852C11.7882 82.9055 12.6156 84.9011 11.8953 86.6338ZM3.6794 78.4861L10.3962 62.2783L10.4254 53.7509L15.5165 66.0065L7.90415 80.2383L3.6794 78.4861ZM16.9474 66.941L11.0484 52.7385C9.5882 49.2341 9.61741 47.3262 9.63688 45.7979C9.63688 45.7589 19.7607 45.7589 19.7607 45.7589L22.3695 58.8907C23.1093 62.6092 23.1093 66.3764 22.3695 70.095L19.7509 83.2365H15.3315L16.9474 66.941ZM25.5137 88.1037H15.7793C15.5067 88.1037 15.2926 87.8895 15.2926 87.617V84.2099H22.5934C24.4722 84.2099 26.0005 85.7382 26.0005 87.617C26.0005 87.8895 25.7863 88.1037 25.5137 88.1037ZM14.6598 17.3733C15.0005 17.4415 15.3315 17.4707 15.6528 17.4707C19.1864 17.4707 21.8439 13.684 22.4766 10.4911C23.2943 6.40261 22.4961 2.06105 17.8819 1.14602C17.405 1.04867 16.9474 1 16.5191 1C12.8006 1 10.7953 4.35838 10.0652 8.01853C9.37405 11.5035 10.6395 16.5751 14.6598 17.3733ZM11.0192 8.21321C11.3988 6.33447 12.674 1.97344 16.5191 1.97344C16.889 1.97344 17.2881 2.01238 17.697 2.09999C22.4377 3.04423 21.9509 8.15481 21.5226 10.3061C20.9288 13.2849 18.5147 16.507 15.6528 16.507C15.3899 16.507 15.1174 16.4777 14.8448 16.4291C12.9563 16.0494 11.9829 14.5503 11.4962 13.353C10.8731 11.7858 10.6882 9.8778 11.0192 8.21321Z"/>
</mask>
<path d="M43.6879 27.4874C47.7861 27.4874 50.0153 22.7662 50.0153 19.2131C50.0153 15.0468 48.3896 10.9389 43.6879 10.9389C38.9862 10.9389 37.3605 15.0468 37.3605 19.2131C37.3605 22.7662 39.5897 27.4874 43.6879 27.4874ZM43.6879 11.9123C48.5162 11.9123 49.0419 17.0131 49.0419 19.2131C49.0419 22.2697 47.1826 26.5139 43.6879 26.5139C40.1933 26.5139 38.334 22.2697 38.334 19.2131C38.334 17.0229 38.8596 11.9123 43.6879 11.9123ZM81 75.4489C81 76.2569 80.3478 76.9091 79.5398 76.9091H69.8054C68.9974 76.9091 68.3452 76.2569 68.3452 75.4489C68.3452 75.1764 68.5594 74.9622 68.832 74.9622C69.1045 74.9622 69.3187 75.1764 69.3187 75.4489C69.3187 75.7215 69.5328 75.9357 69.8054 75.9357H79.5398C79.8124 75.9357 80.0266 75.7215 80.0266 75.4489C80.0266 73.5702 78.4983 72.0419 76.6195 72.0419H68.832C68.5594 72.0419 68.3452 71.8277 68.3452 71.5552C68.3452 71.2826 68.5594 71.0685 68.832 71.0685H72.5213L71.4213 59.8738C71.0514 56.1164 67.9267 53.2934 64.1594 53.2934H61.8329V52.3199H64.1594C68.4328 52.3199 71.9762 55.5323 72.3948 59.7862L73.5045 71.0782H76.6195C79.0434 71.0684 81 73.0348 81 75.4489ZM42.7145 28.4608C40.3003 28.4608 38.334 30.4272 38.334 32.8413V35.7617C38.334 35.7811 38.334 48.6793 38.334 48.6793H39.3074V42.4395C40.4658 46.1094 42.695 48.9031 46.1215 48.9031H55.3692C57.248 48.9031 58.7763 47.3748 58.7763 45.4961C58.7763 43.6173 57.248 42.089 55.3692 42.089H50.9887V37.2218C50.9887 32.559 47.1242 28.4608 42.7145 28.4608ZM57.8028 45.4961C57.8028 46.8394 56.7126 47.9297 55.3692 47.9297H46.1215C41.1278 47.9297 39.3172 40.6775 39.3074 35.7811V32.8413C39.3074 30.9626 40.8357 29.4343 42.7145 29.4343C46.6082 29.4343 50.0153 33.075 50.0153 37.2218V42.089H46.6667L45.0605 33.99C45.0118 33.7272 44.7587 33.5519 44.4861 33.6103C44.2233 33.659 44.0481 33.9219 44.1065 34.1847L45.8684 43.0625H55.3692C56.7126 43.0625 57.8028 44.1527 57.8028 45.4961ZM43.5224 60.3606C36.2605 60.3606 31.2278 65.8119 31.2278 72.5286C31.2278 79.2454 36.2508 84.6967 43.5224 84.6967C50.7941 84.6967 55.817 79.2454 55.817 72.5286C55.817 65.8119 50.7843 60.3606 43.5224 60.3606ZM43.5224 83.7232C37.0685 83.7232 32.2013 78.9144 32.2013 72.5286C32.2013 66.1428 37.0685 61.334 43.5224 61.334C49.9764 61.334 54.8436 66.1428 54.8436 72.5286C54.8436 78.9144 49.9764 83.7232 43.5224 83.7232ZM80.0266 78.6126H66.8851V65.9968C66.8851 57.2553 59.7692 50.1394 51.0277 50.1394H35.7349V43.6076L32.0066 39.8793H26.4482C26.1757 39.8793 25.9615 40.0935 25.9615 40.366C25.9615 40.6386 26.1757 40.8528 26.4482 40.8528H31.5978L34.7517 44.0067V58.2482C29.7774 61.1199 26.7208 66.4251 26.7208 72.5189C26.7208 81.6595 33.5933 89.0674 43.5127 89.0674C53.1985 89.0674 59.9542 82.0099 60.2754 73.1808L65.9019 78.8073V80.8418C63.8674 81.0754 62.4948 82.7011 62.4948 84.6869C62.4948 86.8382 64.0913 88.5807 66.3886 88.5807C68.6859 88.5807 70.2824 86.8382 70.2824 84.6869C70.2824 82.6914 68.9098 81.0657 66.8753 80.8418V79.5763H80.0168C80.2894 79.5763 80.5035 79.3622 80.5035 79.0896C80.5133 78.8268 80.2991 78.6126 80.0266 78.6126ZM35.7349 51.1129H51.0277C57.9586 51.1129 63.7798 55.8827 65.4346 62.3075H56.917C53.9577 58.4624 49.256 55.9801 43.5322 55.9801C40.641 55.9801 38.0225 56.6226 35.7446 57.742V51.1129H35.7349ZM43.5224 88.1037C34.5083 88.1037 27.704 81.4064 27.704 72.5286C27.704 63.6508 34.5083 56.9535 43.5224 56.9535C52.5365 56.9535 59.3409 63.6508 59.3409 72.5286C59.3409 81.4064 52.5462 88.1037 43.5224 88.1037ZM60.2851 71.8083C60.1586 68.664 59.2338 65.734 57.6276 63.2809H65.6585C65.824 64.1667 65.9214 65.072 65.9214 65.9968V77.4348L60.2851 71.8083ZM69.3187 84.6967C69.3187 86.3904 68.0921 87.617 66.3984 87.617C64.7046 87.617 63.478 86.3904 63.478 84.6967C63.478 83.0029 64.7046 81.7763 66.3984 81.7763C68.0921 81.7763 69.3187 83.0029 69.3187 84.6967ZM22.5934 83.2365H20.7536L23.3332 70.28C24.1022 66.4349 24.1022 62.5411 23.3332 58.696L20.8315 46.1386L20.8899 46.197C21.5324 46.8394 22.389 47.1996 23.2943 47.1996C24.2093 47.1996 25.0562 46.8492 25.7084 46.197C26.3509 45.5545 26.7013 44.6979 26.7013 43.7926C26.7013 42.8873 26.3509 42.0306 25.7084 41.3882L21.2793 36.959C21.3182 36.959 21.3182 26.8255 21.3182 26.8255C21.3182 22.26 17.6094 18.5512 13.0439 18.5512C10.6298 18.5512 8.66343 20.5175 8.66343 22.9317V45.2722V45.7881C8.64396 47.1023 8.64396 48.689 9.45192 51.2005V61.996L2.59888 78.564L1.10951 82.1657C0.963496 82.5259 0.963496 82.925 1.10951 83.2852C1.25553 83.6453 1.53783 83.9276 1.898 84.0736L10.8926 87.8019C11.0776 87.8798 11.2625 87.909 11.4475 87.909C12.0218 87.909 12.5669 87.5683 12.8006 87.0037C13.7253 84.7745 12.6643 82.2046 10.4254 81.2799L8.79971 80.6082L15.9351 67.2525L14.3581 83.2365C14.3094 83.2365 14.3094 87.617 14.3094 87.617C14.3094 88.4249 14.9616 89.0771 15.7696 89.0771H25.504C26.312 89.0771 26.9642 88.4249 26.9642 87.617C26.9739 85.2028 25.0173 83.2365 22.5934 83.2365ZM13.0537 19.5246C17.0837 19.5246 20.3545 22.7954 20.3545 26.8255V36.0245L19.712 35.382C18.3297 33.9997 17.5704 32.1697 17.5704 30.2228V26.8741C17.5704 26.6016 17.3563 26.3874 17.0837 26.3874C16.8112 26.3874 16.597 26.6016 16.597 26.8741V30.2228C16.597 32.4325 17.4536 34.5059 19.0209 36.0732L25.0173 42.0696C25.4748 42.5271 25.7279 43.1404 25.7279 43.7926C25.7279 44.4448 25.4748 45.058 25.0173 45.5156C24.1022 46.4306 22.4961 46.4403 21.5713 45.5156L15.5749 39.5191C13.0926 37.0369 11.7298 33.7369 11.7298 30.2228V24.7325C11.7298 24.46 11.5156 24.2458 11.2431 24.2458C10.9705 24.2458 10.7563 24.46 10.7563 24.7325V30.2228C10.7563 33.99 12.2262 37.5333 14.8935 40.2006L19.4784 44.7855H9.64661V22.9317C9.64661 21.0529 11.1749 19.5246 13.0537 19.5246ZM11.8953 86.6338C11.7882 86.8772 11.5059 87.0037 11.2625 86.8966L2.26791 83.1684C2.1511 83.1197 2.05375 83.0223 2.00508 82.9055C1.95641 82.7887 1.95641 82.6524 2.00508 82.5356L3.30949 79.3914L10.0555 82.1852C11.7882 82.9055 12.6156 84.9011 11.8953 86.6338ZM3.6794 78.4861L10.3962 62.2783L10.4254 53.7509L15.5165 66.0065L7.90415 80.2383L3.6794 78.4861ZM16.9474 66.941L11.0484 52.7385C9.5882 49.2341 9.61741 47.3262 9.63688 45.7979C9.63688 45.7589 19.7607 45.7589 19.7607 45.7589L22.3695 58.8907C23.1093 62.6092 23.1093 66.3764 22.3695 70.095L19.7509 83.2365H15.3315L16.9474 66.941ZM25.5137 88.1037H15.7793C15.5067 88.1037 15.2926 87.8895 15.2926 87.617V84.2099H22.5934C24.4722 84.2099 26.0005 85.7382 26.0005 87.617C26.0005 87.8895 25.7863 88.1037 25.5137 88.1037ZM14.6598 17.3733C15.0005 17.4415 15.3315 17.4707 15.6528 17.4707C19.1864 17.4707 21.8439 13.684 22.4766 10.4911C23.2943 6.40261 22.4961 2.06105 17.8819 1.14602C17.405 1.04867 16.9474 1 16.5191 1C12.8006 1 10.7953 4.35838 10.0652 8.01853C9.37405 11.5035 10.6395 16.5751 14.6598 17.3733ZM11.0192 8.21321C11.3988 6.33447 12.674 1.97344 16.5191 1.97344C16.889 1.97344 17.2881 2.01238 17.697 2.09999C22.4377 3.04423 21.9509 8.15481 21.5226 10.3061C20.9288 13.2849 18.5147 16.507 15.6528 16.507C15.3899 16.507 15.1174 16.4777 14.8448 16.4291C12.9563 16.0494 11.9829 14.5503 11.4962 13.353C10.8731 11.7858 10.6882 9.8778 11.0192 8.21321Z" />
<path d="M43.6879 27.4874C47.7861 27.4874 50.0153 22.7662 50.0153 19.2131C50.0153 15.0468 48.3896 10.9389 43.6879 10.9389C38.9862 10.9389 37.3605 15.0468 37.3605 19.2131C37.3605 22.7662 39.5897 27.4874 43.6879 27.4874ZM43.6879 11.9123C48.5162 11.9123 49.0419 17.0131 49.0419 19.2131C49.0419 22.2697 47.1826 26.5139 43.6879 26.5139C40.1933 26.5139 38.334 22.2697 38.334 19.2131C38.334 17.0229 38.8596 11.9123 43.6879 11.9123ZM81 75.4489C81 76.2569 80.3478 76.9091 79.5398 76.9091H69.8054C68.9974 76.9091 68.3452 76.2569 68.3452 75.4489C68.3452 75.1764 68.5594 74.9622 68.832 74.9622C69.1045 74.9622 69.3187 75.1764 69.3187 75.4489C69.3187 75.7215 69.5328 75.9357 69.8054 75.9357H79.5398C79.8124 75.9357 80.0266 75.7215 80.0266 75.4489C80.0266 73.5702 78.4983 72.0419 76.6195 72.0419H68.832C68.5594 72.0419 68.3452 71.8277 68.3452 71.5552C68.3452 71.2826 68.5594 71.0685 68.832 71.0685H72.5213L71.4213 59.8738C71.0514 56.1164 67.9267 53.2934 64.1594 53.2934H61.8329V52.3199H64.1594C68.4328 52.3199 71.9762 55.5323 72.3948 59.7862L73.5045 71.0782H76.6195C79.0434 71.0684 81 73.0348 81 75.4489ZM42.7145 28.4608C40.3003 28.4608 38.334 30.4272 38.334 32.8413V35.7617C38.334 35.7811 38.334 48.6793 38.334 48.6793H39.3074V42.4395C40.4658 46.1094 42.695 48.9031 46.1215 48.9031H55.3692C57.248 48.9031 58.7763 47.3748 58.7763 45.4961C58.7763 43.6173 57.248 42.089 55.3692 42.089H50.9887V37.2218C50.9887 32.559 47.1242 28.4608 42.7145 28.4608ZM57.8028 45.4961C57.8028 46.8394 56.7126 47.9297 55.3692 47.9297H46.1215C41.1278 47.9297 39.3172 40.6775 39.3074 35.7811V32.8413C39.3074 30.9626 40.8357 29.4343 42.7145 29.4343C46.6082 29.4343 50.0153 33.075 50.0153 37.2218V42.089H46.6667L45.0605 33.99C45.0118 33.7272 44.7587 33.5519 44.4861 33.6103C44.2233 33.659 44.0481 33.9219 44.1065 34.1847L45.8684 43.0625H55.3692C56.7126 43.0625 57.8028 44.1527 57.8028 45.4961ZM43.5224 60.3606C36.2605 60.3606 31.2278 65.8119 31.2278 72.5286C31.2278 79.2454 36.2508 84.6967 43.5224 84.6967C50.7941 84.6967 55.817 79.2454 55.817 72.5286C55.817 65.8119 50.7843 60.3606 43.5224 60.3606ZM43.5224 83.7232C37.0685 83.7232 32.2013 78.9144 32.2013 72.5286C32.2013 66.1428 37.0685 61.334 43.5224 61.334C49.9764 61.334 54.8436 66.1428 54.8436 72.5286C54.8436 78.9144 49.9764 83.7232 43.5224 83.7232ZM80.0266 78.6126H66.8851V65.9968C66.8851 57.2553 59.7692 50.1394 51.0277 50.1394H35.7349V43.6076L32.0066 39.8793H26.4482C26.1757 39.8793 25.9615 40.0935 25.9615 40.366C25.9615 40.6386 26.1757 40.8528 26.4482 40.8528H31.5978L34.7517 44.0067V58.2482C29.7774 61.1199 26.7208 66.4251 26.7208 72.5189C26.7208 81.6595 33.5933 89.0674 43.5127 89.0674C53.1985 89.0674 59.9542 82.0099 60.2754 73.1808L65.9019 78.8073V80.8418C63.8674 81.0754 62.4948 82.7011 62.4948 84.6869C62.4948 86.8382 64.0913 88.5807 66.3886 88.5807C68.6859 88.5807 70.2824 86.8382 70.2824 84.6869C70.2824 82.6914 68.9098 81.0657 66.8753 80.8418V79.5763H80.0168C80.2894 79.5763 80.5035 79.3622 80.5035 79.0896C80.5133 78.8268 80.2991 78.6126 80.0266 78.6126ZM35.7349 51.1129H51.0277C57.9586 51.1129 63.7798 55.8827 65.4346 62.3075H56.917C53.9577 58.4624 49.256 55.9801 43.5322 55.9801C40.641 55.9801 38.0225 56.6226 35.7446 57.742V51.1129H35.7349ZM43.5224 88.1037C34.5083 88.1037 27.704 81.4064 27.704 72.5286C27.704 63.6508 34.5083 56.9535 43.5224 56.9535C52.5365 56.9535 59.3409 63.6508 59.3409 72.5286C59.3409 81.4064 52.5462 88.1037 43.5224 88.1037ZM60.2851 71.8083C60.1586 68.664 59.2338 65.734 57.6276 63.2809H65.6585C65.824 64.1667 65.9214 65.072 65.9214 65.9968V77.4348L60.2851 71.8083ZM69.3187 84.6967C69.3187 86.3904 68.0921 87.617 66.3984 87.617C64.7046 87.617 63.478 86.3904 63.478 84.6967C63.478 83.0029 64.7046 81.7763 66.3984 81.7763C68.0921 81.7763 69.3187 83.0029 69.3187 84.6967ZM22.5934 83.2365H20.7536L23.3332 70.28C24.1022 66.4349 24.1022 62.5411 23.3332 58.696L20.8315 46.1386L20.8899 46.197C21.5324 46.8394 22.389 47.1996 23.2943 47.1996C24.2093 47.1996 25.0562 46.8492 25.7084 46.197C26.3509 45.5545 26.7013 44.6979 26.7013 43.7926C26.7013 42.8873 26.3509 42.0306 25.7084 41.3882L21.2793 36.959C21.3182 36.959 21.3182 26.8255 21.3182 26.8255C21.3182 22.26 17.6094 18.5512 13.0439 18.5512C10.6298 18.5512 8.66343 20.5175 8.66343 22.9317V45.2722V45.7881C8.64396 47.1023 8.64396 48.689 9.45192 51.2005V61.996L2.59888 78.564L1.10951 82.1657C0.963496 82.5259 0.963496 82.925 1.10951 83.2852C1.25553 83.6453 1.53783 83.9276 1.898 84.0736L10.8926 87.8019C11.0776 87.8798 11.2625 87.909 11.4475 87.909C12.0218 87.909 12.5669 87.5683 12.8006 87.0037C13.7253 84.7745 12.6643 82.2046 10.4254 81.2799L8.79971 80.6082L15.9351 67.2525L14.3581 83.2365C14.3094 83.2365 14.3094 87.617 14.3094 87.617C14.3094 88.4249 14.9616 89.0771 15.7696 89.0771H25.504C26.312 89.0771 26.9642 88.4249 26.9642 87.617C26.9739 85.2028 25.0173 83.2365 22.5934 83.2365ZM13.0537 19.5246C17.0837 19.5246 20.3545 22.7954 20.3545 26.8255V36.0245L19.712 35.382C18.3297 33.9997 17.5704 32.1697 17.5704 30.2228V26.8741C17.5704 26.6016 17.3563 26.3874 17.0837 26.3874C16.8112 26.3874 16.597 26.6016 16.597 26.8741V30.2228C16.597 32.4325 17.4536 34.5059 19.0209 36.0732L25.0173 42.0696C25.4748 42.5271 25.7279 43.1404 25.7279 43.7926C25.7279 44.4448 25.4748 45.058 25.0173 45.5156C24.1022 46.4306 22.4961 46.4403 21.5713 45.5156L15.5749 39.5191C13.0926 37.0369 11.7298 33.7369 11.7298 30.2228V24.7325C11.7298 24.46 11.5156 24.2458 11.2431 24.2458C10.9705 24.2458 10.7563 24.46 10.7563 24.7325V30.2228C10.7563 33.99 12.2262 37.5333 14.8935 40.2006L19.4784 44.7855H9.64661V22.9317C9.64661 21.0529 11.1749 19.5246 13.0537 19.5246ZM11.8953 86.6338C11.7882 86.8772 11.5059 87.0037 11.2625 86.8966L2.26791 83.1684C2.1511 83.1197 2.05375 83.0223 2.00508 82.9055C1.95641 82.7887 1.95641 82.6524 2.00508 82.5356L3.30949 79.3914L10.0555 82.1852C11.7882 82.9055 12.6156 84.9011 11.8953 86.6338ZM3.6794 78.4861L10.3962 62.2783L10.4254 53.7509L15.5165 66.0065L7.90415 80.2383L3.6794 78.4861ZM16.9474 66.941L11.0484 52.7385C9.5882 49.2341 9.61741 47.3262 9.63688 45.7979C9.63688 45.7589 19.7607 45.7589 19.7607 45.7589L22.3695 58.8907C23.1093 62.6092 23.1093 66.3764 22.3695 70.095L19.7509 83.2365H15.3315L16.9474 66.941ZM25.5137 88.1037H15.7793C15.5067 88.1037 15.2926 87.8895 15.2926 87.617V84.2099H22.5934C24.4722 84.2099 26.0005 85.7382 26.0005 87.617C26.0005 87.8895 25.7863 88.1037 25.5137 88.1037ZM14.6598 17.3733C15.0005 17.4415 15.3315 17.4707 15.6528 17.4707C19.1864 17.4707 21.8439 13.684 22.4766 10.4911C23.2943 6.40261 22.4961 2.06105 17.8819 1.14602C17.405 1.04867 16.9474 1 16.5191 1C12.8006 1 10.7953 4.35838 10.0652 8.01853C9.37405 11.5035 10.6395 16.5751 14.6598 17.3733ZM11.0192 8.21321C11.3988 6.33447 12.674 1.97344 16.5191 1.97344C16.889 1.97344 17.2881 2.01238 17.697 2.09999C22.4377 3.04423 21.9509 8.15481 21.5226 10.3061C20.9288 13.2849 18.5147 16.507 15.6528 16.507C15.3899 16.507 15.1174 16.4777 14.8448 16.4291C12.9563 16.0494 11.9829 14.5503 11.4962 13.353C10.8731 11.7858 10.6882 9.8778 11.0192 8.21321Z"  stroke-width="0.778755" mask="url(#path-1-outside-1_1_669)"/>
</svg>
