<svg width="68" height="50" viewBox="0 0 68 50" fill="#fff" xmlns="http://www.w3.org/2000/svg" stroke="#fff">
<path d="M9.25372 47.6525L9.22772 47.8988C9.17595 48.389 9.13776 48.8779 9.12169 49.3667H9.78238C9.83718 47.3735 10.2197 45.4172 10.9219 43.5459L9.25372 47.6525ZM9.25372 47.6525L9.07362 47.4826C8.51937 46.9597 7.89998 46.4247 7.24807 45.8666C5.23015 44.1383 3.07747 42.2819 2.15009 40.1062L2.15006 40.1061C1.37194 38.2815 1.46445 36.1939 1.56954 34.0342L1.56954 34.034L1.57155 33.9926C1.60234 33.3551 1.63329 32.7144 1.63329 32.0992V15.6158C1.63329 12.1472 3.96368 9.05796 7.29798 8.10452L7.30799 8.10166L7.31787 8.09838L12.9179 6.24168L12.9179 6.24166C15.4539 5.40059 17.2071 3.1304 17.4056 0.5H18.0696C17.8699 3.41754 15.9345 5.93918 13.1268 6.86993L13.2841 7.34453L13.1268 6.86993L7.50319 8.73424C4.42337 9.62042 2.29551 12.4415 2.29551 15.6158V32.0984C2.29551 32.724 2.26381 33.3807 2.23045 34.0654L2.23045 34.0654L2.22734 34.1292C2.13491 36.0276 2.03206 38.14 2.75853 39.8458L2.75861 39.846C3.20864 40.9014 3.98963 41.8894 4.86767 42.7987C5.74471 43.707 6.74806 44.566 7.66905 45.3545L7.67884 45.3628C7.67887 45.3629 7.67889 45.3629 7.67892 45.3629C8.03826 45.6707 8.38494 45.9678 8.71793 46.2604L9.35925 46.824L9.53701 45.989C9.73094 45.078 9.9756 44.1827 10.3015 43.3136L11.6679 39.67L11.777 39.3791L11.5645 39.1525C10.5179 38.036 9.94441 36.5876 9.94441 35.0488V19.9467C9.94441 19.784 10.0627 19.6456 10.2237 19.6202C10.3929 19.597 10.5447 19.6967 10.5919 19.848L10.592 19.8482L14.1857 31.3474L14.1857 31.3474C14.5697 32.5759 14.5322 33.9185 14.0801 35.1251C14.0801 35.1251 14.0801 35.1251 14.0801 35.1252L10.9219 43.5458L9.25372 47.6525ZM11.5839 25.2438L10.6066 25.393V35.0488C10.6066 36.0933 10.9045 37.0929 11.4608 37.9512L12.0004 38.7837L12.3486 37.8548L13.4589 34.8929C13.8604 33.8228 13.8935 32.6356 13.5528 31.5453C13.5528 31.5453 13.5528 31.5453 13.5528 31.5453L11.5839 25.2438Z"></path>
<path d="M42.3545 8.10919L42.3644 8.11249L42.3745 8.11538C45.675 9.05771 48.0066 12.1468 48.0066 15.6158V28.5889H47.3444V15.6158C47.3444 12.4423 45.2182 9.62006 42.1699 8.74418L36.5139 6.86992C33.7054 5.93916 31.77 3.41751 31.5703 0.5H32.2343C32.4328 3.1304 34.186 5.40059 36.722 6.24166L36.722 6.24168L42.3545 8.10919Z"></path>
<path d="M25.2092 26.283L25.2092 26.283C26.5365 31.9259 26.4955 37.8823 25.0896 43.5054C25.0895 43.5055 25.0895 43.5055 25.0895 43.5056L24.8469 44.475L24.2047 44.3144L24.4473 43.3452L24.4473 43.345C25.828 37.8231 25.8685 31.976 24.5645 26.4347C23.6855 22.6975 23.401 18.863 23.72 15.0366L23.72 15.0366L24.0334 11.2754L24.6932 11.3303L24.3798 15.0915L24.3798 15.0915C24.0671 18.8481 24.3461 22.6133 25.2092 26.283Z"></path>
<path d="M48.0066 45.7113V46.2113H48.5066H48.9222C49.7913 46.2113 50.4999 46.92 50.4999 47.7891C50.4999 48.6582 49.7913 49.3669 48.9222 49.3669H28.1444C27.2752 49.3669 26.5666 48.6582 26.5666 47.7891C26.5666 46.92 27.2752 46.2113 28.1444 46.2113H28.5599H29.0599V45.7113V37.4002C29.0599 32.9983 32.0846 29.2951 36.1652 28.2392L36.5399 28.1422V27.7551V24.9335C36.5399 24.7509 36.6884 24.6024 36.871 24.6024H37.7022H38.2022V24.1024V22.9402H38.8644V24.1024V24.6024H39.3644H40.1955C40.3781 24.6024 40.5266 24.7509 40.5266 24.9335V27.7551V28.1422L40.9013 28.2392C44.9819 29.2951 48.0066 32.9983 48.0066 37.4002V45.7113ZM37.7022 25.2646H37.2022V25.7646V27.4692V28.0133L37.7443 27.9675C38.0157 27.9445 38.2739 27.9269 38.5333 27.9269C38.7926 27.9269 39.0518 27.9445 39.3221 27.9675L39.8644 28.0135V27.4692V25.7646V25.2646H39.3644H37.7022ZM37.6523 28.634L37.2022 28.6791V29.1315V30.7513V31.2513H37.7022H39.3652H39.8652V30.7513V29.1315V28.6791L39.4151 28.634C39.1262 28.605 38.8319 28.5891 38.5333 28.5891C38.2346 28.5891 37.9411 28.605 37.6523 28.634ZM36.5399 29.4722V28.7905L35.8897 28.9953C32.3195 30.1202 29.7221 33.4609 29.7221 37.4002V45.7113V46.2113H30.2221H46.8444H47.3444V45.7113V37.4002C47.3444 33.4609 44.747 30.1202 41.1769 28.9953L40.5266 28.7905V29.4722V30.7513C40.5266 31.3919 40.005 31.9135 39.3644 31.9135H37.7022C37.0616 31.9135 36.5399 31.3919 36.5399 30.7513V29.4722ZM28.1444 48.7047H48.9222C49.4277 48.7047 49.8377 48.2946 49.8377 47.7891C49.8377 47.2836 49.4277 46.8735 48.9222 46.8735H47.6755H29.391H28.1444C27.6388 46.8735 27.2288 47.2836 27.2288 47.7891C27.2288 48.2946 27.6388 48.7047 28.1444 48.7047Z"></path>
<path d="M20.3145 13.6736L19.623 15.1845C20.0011 15.3574 20.3336 15.6259 20.5838 15.96L21.9144 14.9626C21.4971 14.4066 20.9436 13.9611 20.3145 13.6736Z"></path>
<path d="M21.0542 17.0967C21.0708 17.2139 21.08 17.3336 21.08 17.4533C21.08 17.7533 21.0276 18.0467 20.9237 18.3251L22.4812 18.9061C22.6541 18.4415 22.7422 17.9528 22.7422 17.4516C22.7422 17.2521 22.7272 17.056 22.7006 16.864L21.0542 17.0967Z"></path>
<path d="M19.4693 21.5148C20.1458 21.3685 20.7824 21.0494 21.3077 20.5948L20.2189 19.3381C19.9031 19.6116 19.5225 19.8027 19.1169 19.8908L19.4693 21.5148Z"></path>
<path d="M18.2907 13.3086C17.5976 13.3576 16.9227 13.5829 16.3393 13.9577L17.2394 15.3556C17.5885 15.1304 17.9932 14.9957 18.4088 14.9667L18.2907 13.3086Z"></path>
<path d="M14.431 17.4524C14.431 17.8497 14.4867 18.2428 14.5973 18.6226L16.193 18.1555C16.1265 17.9286 16.0933 17.6926 16.0933 17.4532C16.0933 17.0352 16.198 16.6221 16.3974 16.2581L14.9388 15.4602C14.6064 16.0677 14.431 16.7576 14.431 17.4524Z"></path>
<path d="M15.6478 20.3914C16.1398 20.8834 16.7507 21.2466 17.4156 21.4419L17.8835 19.847C17.4854 19.7298 17.1197 19.5129 16.8247 19.217L15.6478 20.3914Z"></path>
<path d="M17.655 31.6836L16.4789 32.858C16.971 33.35 17.5818 33.7132 18.2467 33.9085L18.7146 32.3136C18.3165 32.1964 17.95 31.9786 17.655 31.6836Z"></path>
<path d="M23.5733 29.9184C23.5733 29.7189 23.5583 29.5228 23.5317 29.3308L21.8861 29.5635C21.9019 29.6807 21.9111 29.8004 21.9111 29.9201C21.9111 30.2201 21.8587 30.5135 21.7548 30.7919L23.3123 31.3729C23.4852 30.9083 23.5733 30.4196 23.5733 29.9184Z"></path>
<path d="M21.0501 31.8049C20.7342 32.0784 20.3536 32.2695 19.948 32.3576L20.3004 33.9816C20.9769 33.8353 21.6135 33.5162 22.1388 33.0616L21.0501 31.8049Z"></path>
<path d="M19.1219 25.7751C18.4287 25.8242 17.7539 26.0494 17.1704 26.4242L18.0705 27.8222C18.4196 27.5969 18.8243 27.4623 19.2399 27.4332L19.1219 25.7751Z"></path>
<path d="M17.0241 30.6223C16.9576 30.3954 16.9244 30.1594 16.9244 29.92C16.9244 29.502 17.0291 29.0889 17.2286 28.7249L15.77 27.927C15.4375 28.5345 15.2621 29.2235 15.2621 29.9183C15.2621 30.3156 15.3178 30.7087 15.4284 31.0885L17.0241 30.6223Z"></path>
<path d="M21.1456 26.1401L20.4541 27.6511C20.8323 27.824 21.1647 28.0924 21.4149 28.4265L22.7455 27.4292C22.3283 26.8732 21.7747 26.4277 21.1456 26.1401Z"></path>
<path d="M18.2907 38.2419C17.5976 38.291 16.9227 38.5162 16.3393 38.891L17.2394 40.289C17.5885 40.0637 17.9932 39.9291 18.4088 39.9L18.2907 38.2419Z"></path>
<path d="M17.8827 44.7796C17.4846 44.6625 17.1189 44.4455 16.8238 44.1497L15.6478 45.324C16.1398 45.816 16.7507 46.1792 17.4156 46.3745L17.8827 44.7796Z"></path>
<path d="M14.431 42.386C14.431 42.7832 14.4867 43.1764 14.5973 43.5562L16.193 43.0891C16.1265 42.8622 16.0933 42.6262 16.0933 42.3868C16.0933 41.9688 16.198 41.5557 16.3974 41.1917L14.9388 40.3938C14.6064 41.0013 14.431 41.6912 14.431 42.386Z"></path>
<path d="M21.3068 45.5284L20.2181 44.2717C19.9023 44.5452 19.5216 44.7363 19.116 44.8244L19.4684 46.4484C20.1458 46.3021 20.7816 45.9838 21.3068 45.5284Z"></path>
<path d="M22.4812 43.8405C22.6541 43.3751 22.7422 42.8864 22.7422 42.3852C22.7422 42.1857 22.7272 41.9896 22.7006 41.7976L21.055 42.0303C21.0708 42.1475 21.08 42.2672 21.08 42.3869C21.08 42.6869 21.0276 42.9803 20.9237 43.2587L22.4812 43.8405Z"></path>
<path d="M20.5838 40.8931L21.9144 39.8957C21.498 39.3406 20.9445 38.8943 20.3145 38.6067L19.623 40.1177C20.0011 40.2914 20.3336 40.559 20.5838 40.8931Z"></path>
</svg>