<svg width="68" height="50" viewBox="0 0 68 50" fill="none" stroke="#fff" xmlns="http://www.w3.org/2000/svg">
<path d="M1 26.784C1 26.784 10.1628 31.2885 19.3623 31.2885C29.1265 31.2885 40.4895 24.0813 51 24.0813V42.7348H1V26.784Z" stroke-width="1.5" stroke-miterlimit="10" stroke-linecap="round" stroke-linejoin="round"></path>
<path d="M11.8082 36.0108C11.8082 36.0108 19.7473 38.6522 29.3208 35.3252" stroke-width="1.5" stroke-miterlimit="10" stroke-linecap="round" stroke-linejoin="round"></path>
<path d="M29.2385 22.7913V31.6925" stroke-width="1.5" stroke-miterlimit="10" stroke-linecap="round" stroke-linejoin="round"></path>
<path d="M16.8093 24.2358V33.1371" stroke-width="1.5" stroke-miterlimit="10" stroke-linecap="round" stroke-linejoin="round"></path>
<path d="M29.2384 22.7913C28.1524 22.7913 27.272 21.9109 27.272 20.8249V13.0206C27.272 11.9346 28.1524 11.0542 29.2384 11.0542C30.3244 11.0542 31.2048 11.9346 31.2048 13.0206V20.8249C31.2048 21.9109 30.3244 22.7913 29.2384 22.7913Z" stroke-width="1.5" stroke-miterlimit="10" stroke-linecap="round" stroke-linejoin="round"></path>
<path d="M16.8094 24.2359C15.7234 24.2359 14.843 23.3555 14.843 22.2695V14.4651C14.843 13.3792 15.7234 12.4988 16.8094 12.4988C17.8954 12.4988 18.7757 13.3792 18.7757 14.4651V22.2695C18.7756 23.3555 17.8954 24.2359 16.8094 24.2359Z" stroke-width="1.5" stroke-miterlimit="10" stroke-linecap="round" stroke-linejoin="round"></path>
<path d="M5.29699 22.0459C4.21101 22.0459 3.33063 21.1655 3.33063 20.0796V12.2752C3.33063 11.1892 4.21101 10.3088 5.29699 10.3088C6.38296 10.3088 7.26335 11.1892 7.26335 12.2752V20.0796C7.26335 21.1655 6.38296 22.0459 5.29699 22.0459Z" stroke-width="1.5" stroke-miterlimit="10" stroke-linecap="round" stroke-linejoin="round"></path>
<path d="M5.29694 22.0459V30.9471" stroke-width="1.5" stroke-miterlimit="10" stroke-linecap="round" stroke-linejoin="round"></path>
<path d="M51 1.01636H44.7839" stroke-width="1.5" stroke-miterlimit="10" stroke-linecap="round" stroke-linejoin="round"></path>
<path d="M35.8484 1.01636H29.4814C28.217 1.01636 27.0207 1.58953 26.2284 2.575L22.666 7.00609C22.1393 7.66127 21.9234 8.5129 22.0742 9.33983L22.9321 14.0452C23.1217 15.085 24.0274 15.8405 25.0843 15.8405C26.2926 15.8405 27.272 14.8611 27.272 13.6528V9.84451L29.8197 6.89938H32.2962C32.8663 6.89938 33.4132 7.12591 33.8163 7.52906C34.8049 8.51758 34.8396 10.1092 33.8952 11.14L32.6657 12.482C31.8488 13.3737 31.8788 14.7506 32.734 15.6058C33.575 16.4467 34.924 16.4918 35.8191 15.7086L41.1733 11.0247C41.6415 10.615 42.2426 10.3892 42.8648 10.3892H44.198C44.3591 10.3892 44.5199 10.4044 44.6781 10.4344L51 11.637" stroke-width="1.5" stroke-miterlimit="10" stroke-linecap="round" stroke-linejoin="round"></path>
<circle cx="40.4898" cy="1.01626" r="1.01626" fill="white"></circle>
</svg>