<svg width="49" height="52" viewBox="0 0 49 52" fill="none" stroke="#fff" xmlns="http://www.w3.org/2000/svg">
<path d="M9.12626 50.3454C9.12626 50.3454 8.96263 25.5636 9.03536 20.5364C9.03536 20.5364 9.14445 22.3727 9.43536 25.1636C9.90808 29.7364 10.8172 34.2636 12.0172 38.7C12.8172 41.6545 13.7081 45.9364 13.7081 50.3454" stroke-width="1.36364" stroke-miterlimit="10" stroke-linecap="round" stroke-linejoin="round"></path>
<path d="M20.1535 1C20.0808 2.92727 18.5899 4.77272 17.2717 6.01818C16.2354 7 14.9536 7.67272 13.5808 8.06363C9.76265 9.15454 2.58083 12.3636 1.78993 20.7545C0.780836 31.4363 1.02629 50.3454 1.02629 50.3454" stroke-width="1.36364" stroke-miterlimit="10" stroke-linecap="round" stroke-linejoin="round"></path>
<path d="M40.1444 50.3454C40.1444 50.3454 40.3081 25.5636 40.2353 20.5364C40.2353 20.5364 40.1263 22.3727 39.8353 25.1636C39.3626 29.7364 38.4535 34.2636 37.2535 38.7C36.4535 41.6545 35.5626 45.9364 35.5626 50.3454" stroke-width="1.36364" stroke-miterlimit="10" stroke-linecap="round" stroke-linejoin="round"></path>
<path d="M29.1172 1C29.1899 2.92727 30.6808 4.77272 31.999 6.01818C33.0354 7 34.3172 7.67272 35.6899 8.06363C39.5081 9.14545 46.6899 12.3545 47.4808 20.7545C48.4899 31.4363 48.2535 50.3454 48.2535 50.3454" stroke-width="1.36364" stroke-miterlimit="10" stroke-linecap="round" stroke-linejoin="round"></path>
<path d="M25.3808 2.62732C25.3808 2.62732 20.6172 9.50913 21.9536 14.7909C23.2899 20.0819 27.3081 26.9728 26.2172 36.1727C25.1263 45.3727 25.4627 51 25.4627 51" stroke-width="1.36364" stroke-miterlimit="10" stroke-linecap="round" stroke-linejoin="round" stroke-dasharray="1.95 1.95"></path>
</svg>