<svg width="69" height="52" viewBox="0 0 69 52" fill="none" stroke="#fff" xmlns="http://www.w3.org/2000/svg">
<path d="M44.7451 40.8291H33.952V33.8535C33.952 31.4754 32.003 29.5486 29.6153 29.5486H13.6451C11.4889 29.5486 9.74692 31.3047 9.80782 33.4388C9.83219 34.5364 10.7824 35.4022 11.8909 35.4022H28.0439V47.4632C28.0439 49.4023 29.6397 50.9876 31.601 50.9876H50.1903C50.8968 50.9876 51.4694 50.4267 51.4694 49.7193V47.4632C51.445 43.7925 48.4483 40.8291 44.7451 40.8291Z" stroke-width="1.5" stroke-miterlimit="10" stroke-linecap="round" stroke-linejoin="round"></path>
<path d="M45.817 50.9999H35.4016C33.7693 50.9999 32.4415 49.6828 32.4415 48.0609C32.4415 46.4389 33.7693 45.1218 35.4016 45.1218H45.5612" stroke-width="1.5" stroke-miterlimit="10" stroke-linecap="round" stroke-linejoin="round"></path>
<path d="M54.795 42.0853C54.795 44.6463 56.9024 46.7317 59.4971 46.7317H61.9457C64.5404 46.7317 66.6478 44.6463 66.6478 42.0853C66.6478 39.5243 64.5404 37.439 61.9457 37.439H59.4971C56.9024 37.439 54.795 39.5121 54.795 42.0853Z" stroke-width="1.5" stroke-miterlimit="10" stroke-linecap="round" stroke-linejoin="round"></path>
<path d="M66.4286 46.7317H56.7197C55.0508 46.7317 53.6986 48.0732 53.6986 49.7195V50.9878H68V48.2805C68 47.4268 67.2935 46.7317 66.4286 46.7317Z" stroke-width="1.5" stroke-miterlimit="10" stroke-linecap="round" stroke-linejoin="round"></path>
<path d="M31.5766 50.9999H3.26621C2.04804 50.9999 0.976044 50.0609 1.00041 48.8536C1.04913 46.7926 2.75458 45.134 4.83766 45.134H28.0195V47.4755C28.0317 49.4145 29.6153 50.9999 31.5766 50.9999Z" stroke-width="1.5" stroke-miterlimit="10" stroke-linecap="round" stroke-linejoin="round"></path>
<path d="M23.3904 29.5488L27.8733 23.8049V29.5488" stroke-width="1.5" stroke-miterlimit="10" stroke-linecap="round" stroke-linejoin="round"></path>
<path d="M34.8413 1C32.2466 1 30.1392 3.08537 30.1392 5.64635V8.07318C30.1392 10.6342 32.2466 12.7195 34.8413 12.7195C37.436 12.7195 39.5435 10.6342 39.5435 8.07318V5.64635C39.5435 3.08537 37.436 1 34.8413 1Z" stroke-width="1.5" stroke-miterlimit="10" stroke-linecap="round" stroke-linejoin="round"></path>
<path d="M46.1338 30.4268V33.439C46.1338 34.5121 45.2567 35.378 44.1847 35.378H38.5689" stroke-width="1.5" stroke-miterlimit="10" stroke-linecap="round" stroke-linejoin="round"></path>
<path d="M42.4427 23.8168C42.4427 23.8168 42.4305 25.6827 42.3574 27.0363C42.3209 27.8168 41.8945 28.5242 41.2124 28.9144L34.2322 33.1827C33.2577 33.7559 32.9044 34.9876 33.4404 35.9876C34.0251 37.0851 35.4382 37.4388 36.4858 36.7559L46.1338 30.4388C47.0961 29.8168 47.7418 28.8046 47.8514 27.6705C48.1559 24.7437 47.9489 20.2802 47.9489 20.2802C47.9489 17.6339 45.7683 15.4875 43.0883 15.4875H31.7837C29.1159 15.4875 26.6186 16.7558 25.0715 18.9144L16.8732 29.5851" stroke-width="1.5" stroke-miterlimit="10" stroke-linecap="round" stroke-linejoin="round"></path>
<path d="M44.7329 35.3779C44.7329 35.3779 44.7694 37.8048 44.2578 40.817" stroke-width="1.5" stroke-miterlimit="10" stroke-linecap="round" stroke-linejoin="round"></path>
</svg>