<svg width="92" height="82" viewBox="0 0 92 82" fill="none" stroke="white" xmlns="http://www.w3.org/2000/svg">
<path d="M55.3515 63.4486C55.3515 74.044 44.3479 80.8845 30.7812 80.8845C17.2145 80.8845 6.2109 74.044 6.2109 63.4486C6.2109 52.8531 17.2145 46.1269 30.7812 46.1269C31.8097 46.1269 32.8219 46.1759 33.8178 46.2575L50.764 53.0327C50.8129 53.0491 50.8782 53.0817 50.9272 53.0817C53.7026 55.8408 55.3515 59.3508 55.3515 63.4486Z"  stroke-width="1.63258" stroke-miterlimit="10" stroke-linecap="round" stroke-linejoin="round"/>
<path d="M15.1901 21.4913C19.0919 19.32 20.4633 14.4386 18.2593 10.5857L16.1859 6.94504C13.982 3.09215 9.03526 1.72079 5.1334 3.89212C1.23153 6.06344 -0.156157 10.9285 2.04782 14.7814L4.13752 18.4221C6.3415 22.2749 11.2882 23.6463 15.1901 21.4913Z"  stroke-width="1.63258" stroke-miterlimit="10" stroke-linecap="round" stroke-linejoin="round"/>
<path d="M81.3748 36.8376L64.8041 36.8539C63.3022 36.8865 61.8165 36.7723 60.3472 36.511C56.3147 35.7927 48.0049 34.3397 40.4134 31.1235C36.8054 29.5889 33.3933 27.9237 30.7649 26.6666L54.4209 9.58983C56.2657 8.25112 57.131 5.8349 56.1841 3.77786C54.9597 1.0841 51.6292 0.202509 49.2293 1.78611C49.2293 1.78611 17.1818 24.0381 14.8962 26.2911C12.7575 28.3971 12.0882 31.597 13.3616 34.3071C14.7003 37.1804 17.4757 39.7435 20.3817 40.9027L50.7313 53.0327C57.4575 55.5306 60.5757 52.9838 63.5307 51.2369C64.9837 50.3716 66.6326 49.8819 68.3305 49.8819H79.5626V76.5419C79.5626 78.9254 81.4891 80.9661 83.9216 80.9988C88.5908 81.0804 90.7784 76.9827 90.7784 72.3951L90.7948 46.1269C90.7948 40.9843 86.5827 36.8376 81.3748 36.8376Z"  stroke-width="1.63258" stroke-miterlimit="10" stroke-linecap="round" stroke-linejoin="round"/>
<path d="M30.7649 26.6666L27.4997 29.0665"  stroke-width="1.63258" stroke-miterlimit="10" stroke-linecap="round" stroke-linejoin="round"/>
</svg>
